<?xml version="1.0" encoding="utf-8"?>
<!-- Generator: Adobe Illustrator 24.1.2, SVG Export Plug-In . SVG Version: 6.00 Build 0)  -->
<svg version="1.1" id="Layer_3" xmlns="http://www.w3.org/2000/svg" xmlns:xlink="http://www.w3.org/1999/xlink" x="0px" y="0px"
	 viewBox="0 0 899.6 251.1" style="enable-background:new 0 0 899.6 251.1;" xml:space="preserve">
<style type="text/css">
	.st0{fill:none;stroke:#000000;stroke-miterlimit:10;}
</style>
<text id="gradient" class="title-logo" x="449.8" y="10" textLength="660" text-anchor="middle">
	gradient
</text>
<g id="descent">
	<polygon id="D" class="st0" points="99.8,29.5 154,29.5 167,50 180.6,71.4 180.6,104.1 180.6,126.6 180.6,147.3 180.6,179.8 
		167.6,201 154.7,222.1 99.8,222.1 99.8,201 99.8,179.8 140.9,179.8 140.7,147.3 140.6,126.6 140.4,104.1 140.2,71.4 99.8,71.4 
		99.8,50 	"/>
	<polygon id="E1" class="st0" points="283.9,29.3 203.1,29.3 203.1,50 203.1,71.1 203.1,104.1 203.1,126.6 203.1,147.3 203.1,179.3 
		203.1,201 203.1,221.8 283.9,221.9 283.9,201 283.9,179.5 229,179.5 229,146.5 283.9,146.5 283.9,126.6 283.9,104.4 229.4,104.4 
		229.4,71.1 283.9,71.1 283.9,50 	"/>
	<polygon id="S_1_" class="st0" points="387.1,29.3 361.2,29.3 333.5,29.3 320,50 306.3,71.1 306.3,104.4 306.3,126.6 306.3,146.5 
		346.7,146.5 346.7,179.5 306.3,179.5 306.3,201 306.3,221.9 360.3,221.9 373.5,201 387.1,179.5 387.1,146.5 386.7,125.6 
		386.4,104.4 346.7,104.4 346.7,71.1 387.1,71.1 387.1,50 	"/>
	<polygon id="C" class="st0" points="489.8,29.3 435.6,29.3 422.4,50 409.1,71.1 409.1,104.1 409.1,125.8 409.1,147.3 409.1,179.5 
		422.2,201 435,221.9 489.8,221.9 489.8,201 489.8,179.5 448.7,179.5 448.9,147.3 449.1,125.8 449.2,104.1 449.4,71.1 489.8,71.1 
		489.8,50 	"/>
	<polygon id="E" class="st0" points="593.3,29.5 512.4,29.5 512.4,50 512.4,71.1 512.4,104.1 512.4,126.6 512.4,147.3 512.4,179.3 
		512.4,201 512.4,222.1 593.3,222.1 593.3,201 593.3,179.8 538.4,179.8 538.4,146.7 593.3,146.7 593.3,126.6 593.3,104.6 
		538.8,104.6 538.8,71.4 593.3,71.4 593.3,50 	"/>
	<polygon id="N" class="st0" points="615.3,222.1 615.3,201 615.3,179.3 615.3,147.3 615.3,126.6 615.3,104.1 615.3,71.1 615.3,50 
		615.3,29.2 641.5,29.2 649.4,50 657.4,71.1 670,104.4 669.9,71.1 669.9,50 669.9,29.2 696.3,29.2 696.3,50 696.3,71.1 696.3,104.1 
		696.3,126.6 696.3,147.3 696.3,179.3 696.3,201 696.3,221.9 670,221.9 662.2,201 654.1,179.3 641.8,146.4 641.7,179.3 641.6,201 
		641.5,221.9 	"/>
	<polygon id="T" class="st0" points="718.3,29.2 718.3,50 718.3,71.2 744.3,71.3 744.3,104.1 744.4,126.6 744.4,147.3 744.5,179.3 
		744.5,201 744.6,221.9 772.9,221.9 772.9,201 772.9,179.3 772.9,147.3 772.9,126.6 772.9,104.1 772.9,71.1 799.2,71.1 799.2,50 
		799.2,29.2 	"/>
</g>
</svg>
