<?xml version="1.0" encoding="utf-8"?>
<!-- Generator: Adobe Illustrator 24.1.3, SVG Export Plug-In . SVG Version: 6.00 Build 0)  -->
<svg version="1.1" id="Layer_1" xmlns="http://www.w3.org/2000/svg" xmlns:xlink="http://www.w3.org/1999/xlink"
	x="-34" y="-74" width="98.2" height="73.8" viewBox="0 0 98.2 73.8"
	style="enable-background:new 0 0 98.2 73.8;" xml:space="preserve" overflow="visible">
<style type="text/css">
	.st0{fill:none;stroke:#F99C2D;stroke-linecap:round;stroke-miterlimit:10;}
	.st1{fill:none;stroke:#F99C2D;stroke-linecap:round;stroke-linejoin:round;stroke-miterlimit:10;}
</style>
<g>
	<line class="st0" x1="14.5" y1="73.3" x2="69.4" y2="73.3"/>
	<polygon class="st1" points="14.5,73.3 10.5,59.3 53.5,49.3 53.5,73.3 	"/>
	<polygon class="st1" points="53.5,73.3 69.4,73.3 75.5,61.3 53.5,49.3 	"/>
	<path class="st0" d="M52.3,39.4l35.6-3.5c0.1,0,0.1,0.1,0.1,0.1L75.5,61.3c0,0,13.2,10.1,20.3-3.5S88,36,88,36"/>
	<path class="st0" d="M52.3,39.4"/>
	<path class="st0" d="M47.9,39.8"/>
	<polyline class="st0" points="37.5,43.4 39.7,40.6 47.9,39.8 	"/>
	<path class="st0" d="M37.5,43.6"/>
	<path class="st0" d="M28.5,55.1"/>
	<path class="st0" d="M46.9,50.8"/>
	<path class="st0" d="M39.7,40.6"/>
	<line class="st0" x1="0.5" y1="34.2" x2="7.6" y2="42.6"/>
	<line class="st0" x1="21.6" y1="33.3" x2="10.5" y2="12.9"/>
	<line class="st0" x1="38.4" y1="26.2" x2="35.7" y2="15.1"/>
	<line class="st0" x1="54.1" y1="24.5" x2="55.1" y2="0.5"/>
	<line class="st0" x1="70.9" y1="29" x2="78.6" y2="16"/>
	<polygon class="st0" points="26,56.6 37.5,54 31.8,66.3 	"/>
	<path class="st0" d="M18.9,57.4"/>
	<polyline class="st0" points="38.4,52.8 16.1,58 17.3,50.4 35.2,50.4 	"/>
	<polygon class="st0" points="34.8,53.5 35.6,47.5 56.1,44.9 56.9,49 55.5,50.4 53.5,49.3 	"/>
	<polygon class="st0" points="70.9,58.8 70.9,50.4 59.3,47.3 56.9,49 55.5,50.4 	"/>
	<polyline class="st0" points="44.9,46.2 48.6,38.4 64.5,42.6 64.5,48.7 	"/>
	<path class="st0" d="M56.1,44.9"/>
	<polygon class="st0" points="24.6,50.4 26,44.5 46.5,42.6 44.9,46.2 35.6,47.5 35.2,50.4 	"/>
</g>
</svg>
